<svg xmlns="http://www.w3.org/2000/svg" width="85.347" height="79.983" viewBox="0 0 85.347 79.983"><defs><style>.a{fill:#500000;}.b{fill:#fff;}.c{fill:#b1b3b6;}</style></defs><g transform="translate(-36.17 -36.16)"><rect class="a" width="79.344" height="79.974" transform="translate(36.17 36.16)"/><path class="b" d="M164.673,108.37h-6.233l-.154.309-4.271,8.9-4.289-8.9-.15-.3H143v4.117h1.512v12.739h-1.6v4.117h7.48v-4.117h-1.649v-9.041l4.778,9.852.485,1.005.494-1.005,4.827-9.874v9.063h-1.6v4.117h7.48v-4.117h-1.644V112.487h1.644V108.37Z" transform="translate(-59.695 -40.38)"/><path class="b" d="M80.51,125.118h-1.7l-5.536-12.783h1.067V108.2H65.452v4.121h1.225L61.145,125.1H58.84v4.121h8.067V125.1H65.734l.921-2.129h6.656l.917,2.129H72.99v4.121h8.071V125.1Zm-8.983-6.246H68.441l1.543-3.575Z" transform="translate(-12.677 -40.285)"/><path class="b" d="M119.189,72.08H73.69V85.313h8.992V80.239h9.574v31.592H87.183v8.992h19.135v-8.992h-5.069V80.239h9.517v5.016h9.045V72.08Z" transform="translate(-20.981 -20.087)"/><path class="c" d="M139.22,168.153l1.9-1.953v5.351l-1.9-1.812Z" transform="translate(-57.626 -72.719)"/><path class="c" d="M129.65,119.335l-1.9,1.869V82.14l1.9,1.891Z" transform="translate(-51.212 -25.712)"/><path class="c" d="M79.838,78.175l-1.948-1.9h41.475l-2.451,1.9Z" transform="translate(-23.33 -22.435)"/><path class="c" d="M171.855,87.142l-1.9-1.812V80.508l1.9-1.948Z" transform="translate(-74.816 -23.71)"/><path class="a" d="M222.57,211.981a1.591,1.591,0,1,1,1.591,1.591A1.591,1.591,0,0,1,222.57,211.981Zm2.795,0a1.2,1.2,0,1,0-1.2,1.283,1.221,1.221,0,0,0,1.2-1.283Zm-1.816-.908h.67c.441,0,.666.15.666.529a.441.441,0,0,1-.472.485l.485.789h-.344l-.472-.785h-.2v.771h-.335Zm.335.771h.3c.2,0,.37-.026.37-.269s-.194-.247-.366-.247h-.3Z" transform="translate(-104.235 -97.43)"/></g></svg>